<?xml version="1.0" encoding="UTF-8"?>
<svg width="100px" height="73px" viewBox="0 0 100 73" version="1.1" xmlns="http://www.w3.org/2000/svg" xmlns:xlink="http://www.w3.org/1999/xlink">
    <!-- Generator: Sketch 54.1 (76490) - https://sketchapp.com -->
    <title>Money</title>
    <desc>Created with Sketch.</desc>
    <defs>
        <linearGradient x1="-24.1193399%" y1="38.1744498%" x2="124.551969%" y2="61.8901489%" id="linearGradient-1">
            <stop stop-color="#281386" offset="0%"></stop>
            <stop stop-color="#271C90" offset="19%"></stop>
            <stop stop-color="#2531A7" offset="42%"></stop>
            <stop stop-color="#2441B8" offset="55%"></stop>
            <stop stop-color="#234DC5" offset="67%"></stop>
            <stop stop-color="#2253CC" offset="79%"></stop>
            <stop stop-color="#2255CE" offset="100%"></stop>
        </linearGradient>
        <linearGradient x1="-24.1193399%" y1="18.8654754%" x2="124.551969%" y2="81.3046014%" id="linearGradient-2">
            <stop stop-color="#281386" offset="0%"></stop>
            <stop stop-color="#271C90" offset="19%"></stop>
            <stop stop-color="#2531A7" offset="42%"></stop>
            <stop stop-color="#2441B8" offset="55%"></stop>
            <stop stop-color="#234DC5" offset="67%"></stop>
            <stop stop-color="#2253CC" offset="79%"></stop>
            <stop stop-color="#2255CE" offset="100%"></stop>
        </linearGradient>
        <linearGradient x1="32.3630363%" y1="16.3248982%" x2="67.7399095%" y2="83.8590569%" id="linearGradient-3">
            <stop stop-color="#281386" offset="0%"></stop>
            <stop stop-color="#271C90" offset="19%"></stop>
            <stop stop-color="#2531A7" offset="42%"></stop>
            <stop stop-color="#2441B8" offset="55%"></stop>
            <stop stop-color="#234DC5" offset="67%"></stop>
            <stop stop-color="#2253CC" offset="79%"></stop>
            <stop stop-color="#2255CE" offset="100%"></stop>
        </linearGradient>
    </defs>
    <g id="Page-1" stroke="none" stroke-width="1" fill="none" fill-rule="evenodd">
        <g id="Home_page_PF_2020-Copy" transform="translate(-736.000000, -1270.000000)" fill-rule="nonzero">
            <g id="Pink-Area-1-Copy" transform="translate(736.000000, 1215.000000)">
                <g id="Money" transform="translate(-17.000000, 55.000000)">
                    <path d="M109.555063,8 L95.6710144,8 L9,50.1085734 L9,65.0869777 C9.14871356,69.4482411 12.6633465,72.9272447 16.9940249,73 L109.555063,73 C113.737028,72.9248105 117.066708,69.4482411 116.992083,65.2346521 C116.991278,65.1854273 116.989935,65.1362025 116.988056,65.0869777 L116.988056,16.1956592 C117.222938,11.9098558 113.965198,8.24396029 109.711829,8.00703211 C109.659484,8.00405699 109.607139,8.0016228 109.555063,8 Z" id="Path" fill="#29C9FF"></path>
                    <path d="M108,17.0854125 L108,56.1575815 C108.000804,60.4346307 104.573186,63.923605 100.295635,64 L7.84432284,64 C3.51207523,64 0,60.4887774 0,56.1575815 L0,7.84241851 C0,3.51122261 3.51207523,0 7.84432284,0 L7.84432284,0 L100.295635,0 C104.573186,0.0763950259 108.000536,3.56536926 108,7.84241851 L108,17.0854125 Z" id="Path" fill="url(#linearGradient-1)"></path>
                    <g id="Group" transform="translate(28.000000, 8.000000)" fill="#6DDAFF">
                        <ellipse id="Oval" cx="26.0445161" cy="24.944385" rx="25.0898299" ry="24.8652406"></ellipse>
                    </g>
                    <path d="M54.070919,28.5313014 C51.6818902,28.9642732 49.3927662,27.3847377 48.9583973,25.0031219 C48.5240285,22.6217766 50.1086604,20.3400149 52.4979607,19.9070431 C53.0181174,19.8128717 53.5510337,19.8128717 54.070919,19.9070431 C56.4208546,19.9070431 58.3258335,21.8058953 58.3258335,24.1482731 C58.3258335,25.7099485 59.5958195,26.9758499 61.1625337,26.9758499 C62.729248,26.9758499 63.999234,25.7099485 63.999234,24.1482731 C63.9555256,19.6204698 60.8763932,15.6823201 56.4819377,14.5344034 L56.4819377,13.8275769 C56.4819377,12.2659015 55.2119517,11 53.6452375,11 C52.0785232,11 50.8085373,12.2659015 50.8085373,13.8275769 L50.8085373,14.8171882 C46.7667349,16.1507415 44.0280392,19.9046076 44.0003482,24.1482731 C44.0003482,29.6919366 48.5088256,34.1861845 54.0706475,34.1861845 C56.4205831,34.1848315 58.326648,36.0828719 58.3280054,38.4252497 C58.3280054,38.4731472 58.3271909,38.5210447 58.3255621,38.5689422 C58.4053773,40.832032 56.6296231,42.7308842 54.3592313,42.8101722 C54.2631272,42.8134195 54.1667516,42.8134195 54.070376,42.8101722 C51.7217978,42.8883777 49.7541068,41.0536595 49.6759204,38.7126347 C49.6742915,38.6647372 49.6734771,38.6168397 49.6734771,38.5689422 C49.6734771,37.0072668 48.4034911,35.7413653 46.8367769,35.7413653 C45.2700627,35.7413653 44.0000767,37.0072668 44.0000767,38.5689422 C43.9832449,42.8269499 46.7390439,46.6040882 50.8082658,47.9000271 L50.8082658,49.1724231 C50.8082658,50.7340985 52.0782518,52 53.644966,52 C55.2116802,52 56.4816662,50.7340985 56.4816662,49.1724231 L56.4816662,48.1828118 C60.9048987,47.0790042 64.0052065,43.1140643 63.9989625,38.5689422 C64.0774203,33.1037548 59.6962673,28.6100481 54.2134462,28.5321132 C54.1662086,28.5318426 54.1186995,28.5313014 54.070919,28.5313014 Z" id="Path" fill="url(#linearGradient-3)"></path>
                </g>
            </g>
        </g>
    </g>
</svg>