<?xml version="1.0" encoding="UTF-8"?>
<svg width="70px" height="49px" viewBox="0 0 70 49" version="1.1" xmlns="http://www.w3.org/2000/svg" xmlns:xlink="http://www.w3.org/1999/xlink">
    <!-- Generator: Sketch 54.1 (76490) - https://sketchapp.com -->
    <title>Our Vision</title>
    <desc>Created with Sketch.</desc>
    <defs>
        <linearGradient x1="-24.1193399%" y1="33.5201922%" x2="124.551969%" y2="66.5698311%" id="linearGradient-1">
            <stop stop-color="#281386" offset="0%"></stop>
            <stop stop-color="#271C90" offset="19%"></stop>
            <stop stop-color="#2531A7" offset="42%"></stop>
            <stop stop-color="#2441B8" offset="55%"></stop>
            <stop stop-color="#234DC5" offset="67%"></stop>
            <stop stop-color="#2253CC" offset="79%"></stop>
            <stop stop-color="#2255CE" offset="100%"></stop>
        </linearGradient>
        <linearGradient x1="-24.1193399%" y1="33.9266536%" x2="124.551969%" y2="66.1611493%" id="linearGradient-2">
            <stop stop-color="#281386" offset="0%"></stop>
            <stop stop-color="#271C90" offset="19%"></stop>
            <stop stop-color="#2531A7" offset="42%"></stop>
            <stop stop-color="#2441B8" offset="55%"></stop>
            <stop stop-color="#234DC5" offset="67%"></stop>
            <stop stop-color="#2253CC" offset="79%"></stop>
            <stop stop-color="#2255CE" offset="100%"></stop>
        </linearGradient>
        <linearGradient x1="-24.1193399%" y1="33.5129422%" x2="124.551969%" y2="66.5771207%" id="linearGradient-3">
            <stop stop-color="#281386" offset="0%"></stop>
            <stop stop-color="#271C90" offset="19%"></stop>
            <stop stop-color="#2531A7" offset="42%"></stop>
            <stop stop-color="#2441B8" offset="55%"></stop>
            <stop stop-color="#234DC5" offset="67%"></stop>
            <stop stop-color="#2253CC" offset="79%"></stop>
            <stop stop-color="#2255CE" offset="100%"></stop>
        </linearGradient>
    </defs>
    <g id="Page-1" stroke="none" stroke-width="1" fill="none" fill-rule="evenodd">
        <g id="Home_page_PF_2020-Copy" transform="translate(-761.000000, -2939.000000)" fill-rule="nonzero">
            <g id="Our-Vision" transform="translate(761.000000, 2939.000000)">
                <ellipse id="Oval" fill="#6DDAFF" cx="34.4852941" cy="25" rx="14.9264706" ry="14.7959184"></ellipse>
                <path d="M36.4973262,10.2040816 C35.9922282,10.2040816 35.4921212,10.2307143 35,10.2790476 C42.6476383,11.0426798 48.4678972,17.4044564 48.4678972,25 C48.4678972,32.5955436 42.6476383,38.9573202 35,39.7209524 C35.4921212,39.7692857 35.9922282,39.7959184 36.4973262,39.7959184 C44.7668304,39.7959184 51.4705882,33.17156 51.4705882,25 C51.4705882,16.82844 44.7668304,10.2040816 36.4973262,10.2040816 Z" id="Shape" fill="#29C9FF"></path>
                <ellipse id="Oval" fill="#F5F5F5" cx="35" cy="24.4897959" rx="4.11764706" ry="4.08163265"></ellipse>
                <path d="M25.5555567,25.5102041 C25.0862955,25.5102041 24.705884,25.0562721 24.705884,24.4963186 C24.7053471,23.3750199 24.8345853,22.2590046 25.0899361,21.1798993 C25.1640607,20.8203145 25.3965766,20.5375526 25.6964629,20.4423038 C25.9963492,20.3470549 26.3158996,20.4544714 26.5300229,20.7225039 C26.7441461,20.9905364 26.8187792,21.376546 26.7247063,21.7294252 C26.5125493,22.6299181 26.4050524,23.5609165 26.4052293,24.4963186 C26.4052293,24.7652178 26.3157105,25.0231035 26.156366,25.2132439 C25.9970214,25.4033844 25.7809039,25.5102041 25.5555567,25.5102041 Z" id="Shape" fill="#F5F5F5"></path>
                <path d="M27.7935818,18.3673469 C27.3828184,18.3671223 27.0115131,18.1448733 26.8488688,17.8018784 C26.6862245,17.4588835 26.7633723,17.0607938 27.0451561,16.7890178 C29.3709954,14.5298349 32.6261614,13.2531505 36.0293522,13.2653934 C36.5979135,13.2653934 37.0588235,13.6845168 37.0588235,14.2015316 C37.0588235,14.7185465 36.5979135,15.1376699 36.0293522,15.1376699 C33.1932482,15.1279477 30.480611,16.1918909 28.5420074,18.0743356 C28.3474667,18.2614509 28.0767561,18.3674351 27.7935818,18.3673469 Z" id="Shape" fill="#F5F5F5"></path>
                <g id="Group">
                    <path d="M35,46.895301 C48.0457685,46.895301 59.286148,36.300595 64.8255787,29.9858273 C67.5659661,26.9121405 67.5659661,22.2736446 64.8255787,19.1999578 C59.286148,12.8851901 48.0457685,2.29048406 35,2.29048406 C21.9542315,2.29048406 10.713852,12.8851901 5.17442125,19.1999578 C2.43403399,22.2736446 2.43403399,26.9121405 5.17442125,29.9858273 C10.713852,36.300595 21.9542315,46.895301 35,46.895301 Z M6.77259962,20.5996994 C12.0740038,14.5557467 22.791575,4.41452296 35,4.41452296 C47.208425,4.41452296 57.9259962,14.5557467 63.2274004,20.5996994 C65.2569249,22.8754526 65.2569249,26.3103325 63.2274004,28.5860857 C57.9259962,34.6300384 47.208425,44.7712621 35,44.7712621 C22.791575,44.7712621 12.0740038,34.6300384 6.77259962,28.5860857 C4.74307514,26.3103325 4.74307514,22.8754526 6.77259962,20.5996994 Z" id="Shape" fill="url(#linearGradient-1)"></path>
                    <path d="M35,47.9591837 C48.9008892,47.9591837 60.8780502,36.8101069 66.7805781,30.1649174 C69.7005916,26.9303991 69.7005916,22.0491927 66.7805781,18.8146744 C60.8780502,12.1694849 48.9008892,1.02040816 35,1.02040816 C21.0991108,1.02040816 9.12194979,12.1694849 3.21942187,18.8146744 C0.299408398,22.0491927 0.299408398,26.9303991 3.21942187,30.1649174 C9.12194979,36.8101069 21.0991108,47.9591837 35,47.9591837 Z M4.72100927,20.2491944 C10.4077238,13.8307734 21.9042567,3.06122449 35,3.06122449 C48.0957433,3.06122449 59.5922762,13.8307734 65.2789907,20.2491944 C67.4560227,22.6659476 67.4560227,26.3136442 65.2789907,28.7303974 C59.5922762,35.1488185 48.0957433,45.9183673 35,45.9183673 C21.9042567,45.9183673 10.4077238,35.1488185 4.72100927,28.7303974 C2.5439773,26.3136442 2.5439773,22.6659476 4.72100927,20.2491944 Z" id="Shape-Copy" fill="url(#linearGradient-2)"></path>
                    <path d="M35,48.9795918 C49.3221282,48.9795918 61.6622335,37.3457726 67.7436259,30.4116618 C70.7521247,27.0365123 70.7521247,21.9430795 67.7436259,18.56793 C61.6622335,11.6338192 49.3221282,5.82867088e-16 35,5.82867088e-16 C20.6778717,5.82867088e-16 8.33776645,11.6338192 2.25637404,18.56793 C-0.752124681,21.9430795 -0.752124681,27.0365123 2.25637404,30.4116618 C8.33776645,37.3457726 20.6778717,48.9795918 35,48.9795918 Z M3.74426763,20.047261 C9.61442456,13.3232009 21.4818134,2.04081633 35,2.04081633 C48.5181866,2.04081633 60.3855754,13.3232009 66.2557324,20.047261 C68.5029912,22.5790977 68.5029912,26.4004941 66.2557324,28.9323308 C60.3855754,35.656391 48.5181866,46.9387755 35,46.9387755 C21.4818134,46.9387755 9.61442456,35.656391 3.74426763,28.9323308 C1.49700883,26.4004941 1.49700883,22.5790977 3.74426763,20.047261 Z" id="Shape-Copy-2" fill="url(#linearGradient-3)"></path>
                    <path d="M35,41.5852038 C38.6804291,41.5958762 42.2632023,40.4022919 45.2011385,38.1867415 C45.670633,37.8348193 45.765783,37.169144 45.4136622,36.6999143 C45.0615415,36.2306846 44.3954906,36.1355882 43.9259962,36.4875104 C41.3556061,38.4266948 38.2204791,39.471148 35,39.4611649 C28.2714086,39.4587439 22.3827365,34.9413033 20.6409263,28.4457337 C18.8991161,21.950164 21.7381806,15.094988 27.5637664,11.7299149 C33.3893521,8.36484174 40.7498786,9.32835782 45.5118436,14.0793748 C50.2738086,18.8303917 51.2506573,26.1850826 47.893814,32.0132225 C47.7009653,32.3419922 47.6991601,32.7488297 47.8890834,33.0792961 C48.0790068,33.4097625 48.4315379,33.6131877 48.8128534,33.6123499 C49.1941689,33.611512 49.5458017,33.4065397 49.7342694,33.0752419 C53.5747517,26.4126582 52.460068,18.0028451 47.0163182,12.569458 C41.5725685,7.136071 33.1565231,6.03329801 26.4953384,9.88054868 C19.8341537,13.7277993 16.588027,21.5662059 18.580255,28.9930625 C20.572483,36.4199191 27.3065337,41.5841964 35,41.5852038 L35,41.5852038 Z" id="Shape" fill="#284CB2"></path>
                    <path d="M29.686907,24.5928925 C29.686907,27.5255782 32.0656598,29.9029898 35,29.9029898 C37.9343402,29.9029898 40.313093,27.5255782 40.313093,24.5928925 C40.313093,21.6602069 37.9343402,19.2827953 35,19.2827953 C32.0671161,19.2863064 29.6904201,21.6616624 29.686907,24.5928925 Z M38.1878558,24.5928925 C38.1878558,26.3525039 36.7606041,27.7789509 35,27.7789509 C33.2393959,27.7789509 31.8121442,26.3525039 31.8121442,24.5928925 C31.8121442,22.8332812 33.2393959,21.4068342 35,21.4068342 C36.7606041,21.4068342 38.1878558,22.8332812 38.1878558,24.5928925 Z" id="Shape" fill="#284CB2"></path>
                </g>
            </g>
        </g>
    </g>
</svg>