<svg xmlns="http://www.w3.org/2000/svg" viewBox="0 0 164.46 70.68"><defs><style>.cls-1{fill:#12d879;}.cls-2{fill:#0048c5;}.cls-3{font-size:12.51px;font-family:Futura-Normal;}</style></defs><title>Logo 1</title><g id="Layer_2" data-name="Layer 2"><g id="Layer_1-2" data-name="Layer 1"><path class="cls-1" d="M21.06,5.5a5.68,5.68,0,0,0-6.12,1.56,5.58,5.58,0,0,0-1.18,3.63c0,1.51,0,3,0,4.54,0,3.24.31,6.61-.27,9.82A12.07,12.07,0,0,1,6,34.28c.22-.08,1.08.49,1.28.59a13.42,13.42,0,0,1,1.64,1.05c3.45,2.64,4.49,7.36,4.87,11.49a57.69,57.69,0,0,1,0,8.72c-.12,2.14,0,4.66,1.77,6.17a6.08,6.08,0,0,0,5.54.85v5.51c-2.93.19-6,.34-8.61-1-4.59-2.48-4.68-7.68-4.67-12.25,0-3,0-6-.22-9-.17-2.42-.36-5-2.12-6.83A8.16,8.16,0,0,0,0,37.29v-6a7.53,7.53,0,0,0,5.74-2.61A7.14,7.14,0,0,0,7.3,24.19L7.77,9.62a10.56,10.56,0,0,1,2.4-6.43,9.1,9.1,0,0,1,7-3.19h3.94Z"/><path class="cls-1" d="M143.39,5.5a5.7,5.7,0,0,1,6.13,1.56,5.63,5.63,0,0,1,1.18,3.63c0,1.51,0,3,0,4.54,0,3.24-.31,6.61.26,9.82a12.1,12.1,0,0,0,7.58,9.23c-.22-.08-1.09.49-1.29.59a12.58,12.58,0,0,0-1.63,1.05c-3.45,2.64-4.49,7.36-4.88,11.49a57.69,57.69,0,0,0,0,8.72c.12,2.14,0,4.66-1.77,6.17a6.09,6.09,0,0,1-5.55.85v5.51c2.93.19,6,.34,8.61-1,4.59-2.48,4.67-7.68,4.67-12.25,0-3,0-6,.21-9,.18-2.42.37-5,2.13-6.83a8.14,8.14,0,0,1,5.44-2.29v-6a7.53,7.53,0,0,1-5.74-2.61,7.23,7.23,0,0,1-1.57-4.53l-.46-14.57a10.51,10.51,0,0,0-2.41-6.43A9.06,9.06,0,0,0,147.34,0h-4Z"/><path class="cls-2" d="M22.14,32.67H19.38V13.08h4.73a7.61,7.61,0,0,1,7.6,7.61,7.6,7.6,0,0,1-7.6,7.61h-2Zm0-7.13h2A4.87,4.87,0,0,0,29,20.69a4.88,4.88,0,0,0-4.85-4.84h-2Z"/><path class="cls-2" d="M36.53,21.86a5.5,5.5,0,0,1,2.15-.43v2.64a2.75,2.75,0,0,0-2,.86,2.73,2.73,0,0,0-.62.91,2,2,0,0,0-.22,1v5.8H33.15V21.42H35.8v.82A5.73,5.73,0,0,1,36.53,21.86Z"/><path class="cls-2" d="M41.15,31a5.58,5.58,0,0,1,0-7.94,5.62,5.62,0,0,1,9.59,4,5.61,5.61,0,0,1-9.59,4ZM43,25a2.95,2.95,0,0,0,2.09,5,2.86,2.86,0,0,0,2.08-.86,3,3,0,0,0,0-4.17,2.86,2.86,0,0,0-2.08-.86A2.9,2.9,0,0,0,43,25Z"/><path class="cls-2" d="M63.43,33.81a6.91,6.91,0,0,1-2.16,5.53,5.41,5.41,0,0,1-3.67,1.43V39.45l0-1.33a3.08,3.08,0,0,0,1.8-.64,4.37,4.37,0,0,0,1.4-3.67v-2a5.46,5.46,0,0,1-3,.82,5.65,5.65,0,0,1-5.62-5.62,5.62,5.62,0,1,1,11.24,0ZM55.73,25a3,3,0,0,0,2.08,5,3,3,0,1,0-2.08-5Z"/><path class="cls-2" d="M68.25,21.86a5.5,5.5,0,0,1,2.15-.43v2.64a2.87,2.87,0,0,0-1.12.22,3,3,0,0,0-.93.64,2.85,2.85,0,0,0-.61.91,2,2,0,0,0-.22,1v5.8H64.87V21.42h2.65v.82A5.73,5.73,0,0,1,68.25,21.86Z"/><path class="cls-2" d="M79.91,31.84a5.54,5.54,0,0,1-3,.83,5.65,5.65,0,0,1-5.63-5.62,5.64,5.64,0,0,1,11.27,0v5.62H79.91ZM74.83,25a2.95,2.95,0,0,0,2.09,5,3,3,0,0,0,3-2.94A2.84,2.84,0,0,0,79,25a2.87,2.87,0,0,0-2.09-.86A2.92,2.92,0,0,0,74.83,25Z"/><path class="cls-2" d="M95.35,21.42a4.43,4.43,0,0,1,3.28,1.36,4.48,4.48,0,0,1,1.37,3.3v6.59H97.37V26.08a2,2,0,1,0-4,0v6.59H90.67V26.08a2,2,0,0,0-3.45-1.44,2,2,0,0,0-.59,1.44v6.59H84V26.08a4.65,4.65,0,0,1,8-3.24A4.47,4.47,0,0,1,95.35,21.42Z"/><path class="cls-2" d="M112.79,21.42a4.43,4.43,0,0,1,3.28,1.36,4.48,4.48,0,0,1,1.37,3.3v6.59h-2.63V26.08a2,2,0,1,0-4,0v6.59h-2.66V26.08a2,2,0,0,0-3.45-1.44,2,2,0,0,0-.59,1.44v6.59h-2.63V26.08a4.65,4.65,0,0,1,8-3.24A4.47,4.47,0,0,1,112.79,21.42Z"/><path class="cls-2" d="M124.53,32.67a5.83,5.83,0,0,1-2.06-.38,5.71,5.71,0,0,1-1.82-1.16,5.62,5.62,0,0,1-1.28-1.82,5.27,5.27,0,0,1-.49-2.06v-.18a5.71,5.71,0,0,1,.38-2.06,5.92,5.92,0,0,1,1.15-1.82,5.37,5.37,0,0,1,1.83-1.28,5.47,5.47,0,0,1,2.12-.49h.12a5.55,5.55,0,0,1,2.06.39A5.46,5.46,0,0,1,128.36,23a8.54,8.54,0,0,1,1.82,3l-7.54,3.32a3.74,3.74,0,0,0,.79.47,3.06,3.06,0,0,0,1.06.2h.12a3.34,3.34,0,0,0,1.08-.25,3.2,3.2,0,0,0,1-.67,3.8,3.8,0,0,0,.6-.95l2.49,1a5.9,5.9,0,0,1-1.15,1.82,5.42,5.42,0,0,1-1.82,1.28,5.32,5.32,0,0,1-2.07.49Zm-.12-8.57a3,3,0,0,0-1.09.25,3.3,3.3,0,0,0-1,.67,4.2,4.2,0,0,0-.59.95,3.23,3.23,0,0,0-.2.91l4.8-2.11a3.24,3.24,0,0,0-.78-.47,3.08,3.08,0,0,0-1.12-.2Z"/><path class="cls-2" d="M135,21.86a5.52,5.52,0,0,1,2.16-.43v2.64a2.92,2.92,0,0,0-1.13.22,2.88,2.88,0,0,0-.92.64,2.7,2.7,0,0,0-.61.91,1.87,1.87,0,0,0-.23,1v5.8h-2.65V21.42h2.65v.82A5.73,5.73,0,0,1,135,21.86Z"/><path class="cls-2" d="M139.57,31.76a3.16,3.16,0,0,1-1.15-2.5H141a.74.74,0,0,0,.51.7,1.41,1.41,0,0,0,.52.1,1.75,1.75,0,0,0,.79-.14.56.56,0,0,0,.34-.47A.6.6,0,0,0,143,29a1.91,1.91,0,0,0-1.12-.38,4.26,4.26,0,0,1-2.73-1.25,3.13,3.13,0,0,1-.87-2.17,3.65,3.65,0,0,1,1-2.53,3.4,3.4,0,0,1,2.73-1.2,3.73,3.73,0,0,1,3.85,3.84h-2.61A1.08,1.08,0,0,0,142,24a1,1,0,0,0-1.08,1.11c0,.46.43.73,1.29.84a4.07,4.07,0,0,1,3,1.45,3.21,3.21,0,0,1,.62,2,2.82,2.82,0,0,1-1.1,2.31,4.05,4.05,0,0,1-2.64.91A3.71,3.71,0,0,1,139.57,31.76Z"/><path class="cls-2" d="M95.24,37.73v9.1h6.67v2.68H95.24v5.14H92.56V35.06h11.33v2.67Z"/><path class="cls-2" d="M105.34,53a5.48,5.48,0,0,1-1.67-4,5.63,5.63,0,0,1,11.26,0,5.63,5.63,0,0,1-5.63,5.63A5.4,5.4,0,0,1,105.34,53Zm1.88-6.06a2.88,2.88,0,0,0-.85,2.08,2.91,2.91,0,0,0,.85,2.08,2.87,2.87,0,0,0,2.08.87,2.8,2.8,0,0,0,2.08-.87,2.85,2.85,0,0,0,.87-2.08,3,3,0,0,0-3-2.94A2.86,2.86,0,0,0,107.22,46.94Z"/><path class="cls-2" d="M119.75,43.84a5.5,5.5,0,0,1,2.15-.43V46a2.74,2.74,0,0,0-1.12.23,3,3,0,0,0-.93.63,2.85,2.85,0,0,0-.61.91,2,2,0,0,0-.22,1v5.81h-2.65V43.39H119v.83A4,4,0,0,1,119.75,43.84Z"/><path class="cls-2" d="M131,50.45l2.16,1.61a6.1,6.1,0,0,1-.77.94,5.65,5.65,0,0,1-9.62-4,5.62,5.62,0,0,1,9.62-4,4.82,4.82,0,0,1,.77.92L131,47.6A2.94,2.94,0,0,0,125.45,49a2.91,2.91,0,0,0,.85,2.08,2.95,2.95,0,0,0,4.18,0A2.9,2.9,0,0,0,131,50.45Z"/><path class="cls-2" d="M140.23,54.65a5.83,5.83,0,0,1-2.06-.38,5.73,5.73,0,0,1-1.82-1.17,5.42,5.42,0,0,1-1.28-1.82,5.27,5.27,0,0,1-.49-2.06V49A5.75,5.75,0,0,1,135,47a5.59,5.59,0,0,1,1.15-1.81,5.26,5.26,0,0,1,1.83-1.29,5.61,5.61,0,0,1,2.12-.49h.12a5.36,5.36,0,0,1,2.06.4A5.54,5.54,0,0,1,144.06,45a8.6,8.6,0,0,1,1.82,3l-7.54,3.32a3.7,3.7,0,0,0,.79.46,3.08,3.08,0,0,0,1.06.21h.12a3.41,3.41,0,0,0,1.08-.26,3,3,0,0,0,1-.67,3.75,3.75,0,0,0,.6-.94l2.49,1a5.9,5.9,0,0,1-1.15,1.82,5.75,5.75,0,0,1-3.89,1.77Zm-.12-8.57a3,3,0,0,0-2.06.92,4.14,4.14,0,0,0-.59.94,2.92,2.92,0,0,0-.2.91l4.8-2.1a3,3,0,0,0-.78-.47,2.88,2.88,0,0,0-1.12-.2Z"/><text class="cls-3" transform="translate(26.74 68.14)">Private Limited</text></g></g></svg>