<svg xmlns="http://www.w3.org/2000/svg" viewBox="0 0 229.34 98.57"><defs><style>.cls-1{fill:#12d879;}.cls-2,.cls-3{fill:#fff;}.cls-3{font-size:17.45px;font-family:Futura-Normal;}</style></defs><title>logo 2</title><g id="Layer_2" data-name="Layer 2"><g id="Layer_1-2" data-name="Layer 1"><path class="cls-1" d="M29.37,7.67a7.91,7.91,0,0,0-8.54,2.18,7.84,7.84,0,0,0-1.64,5.06c0,2.1,0,4.22,0,6.33,0,4.52.43,9.22-.37,13.69A16.82,16.82,0,0,1,8.29,47.8c.31-.11,1.52.68,1.8.83a18.76,18.76,0,0,1,2.28,1.46c4.81,3.68,6.26,10.26,6.8,16a82.26,82.26,0,0,1,0,12.16c-.17,3,0,6.5,2.46,8.6,2.05,1.74,5.25,2,7.73,1.18v7.69c-4.07.26-8.4.48-12-1.47-6.4-3.45-6.52-10.7-6.51-17.08,0-4.16,0-8.33-.3-12.48-.24-3.38-.51-6.95-3-9.52A11.26,11.26,0,0,0,0,52V43.69a10.48,10.48,0,0,0,8-3.64,10,10,0,0,0,2.18-6.32l.66-20.32a14.62,14.62,0,0,1,3.35-9A12.67,12.67,0,0,1,23.87,0h5.5Z"/><path class="cls-1" d="M200,7.67a7.9,7.9,0,0,1,8.54,2.18,7.73,7.73,0,0,1,1.64,5.06c0,2.1,0,4.22,0,6.33,0,4.52-.43,9.22.37,13.69A16.84,16.84,0,0,0,221.05,47.8c-.3-.11-1.51.68-1.79.83A18,18,0,0,0,217,50.09c-4.82,3.68-6.26,10.26-6.8,16a80.91,80.91,0,0,0,0,12.16c.16,3,0,6.5-2.47,8.6-2,1.74-5.24,2-7.73,1.18v7.69c4.08.26,8.4.48,12-1.47,6.4-3.45,6.52-10.7,6.52-17.08,0-4.16,0-8.33.29-12.48.25-3.38.52-6.95,3-9.52A11.26,11.26,0,0,1,229.34,52V43.69a10.49,10.49,0,0,1-8-3.64,10,10,0,0,1-2.18-6.32l-.65-20.32a14.68,14.68,0,0,0-3.35-9A12.7,12.7,0,0,0,205.47,0H200Z"/><path class="cls-2" d="M30.88,45.57H27V18.25h6.6a10.58,10.58,0,0,1,10.6,10.6,10.6,10.6,0,0,1-10.6,10.62H30.88Zm0-10h2.74a6.76,6.76,0,0,0,6.76-6.76,6.79,6.79,0,0,0-6.76-6.75H30.88Z"/><path class="cls-2" d="M50.94,30.49a7.8,7.8,0,0,1,3-.6v3.67a3.86,3.86,0,0,0-1.56.32,4.23,4.23,0,0,0-1.29.88A3.88,3.88,0,0,0,50.24,36a2.74,2.74,0,0,0-.32,1.44v8.1H46.23V29.87h3.69V31A6.69,6.69,0,0,1,50.94,30.49Z"/><path class="cls-2" d="M57.39,43.26a7.76,7.76,0,0,1,0-11.07,7.84,7.84,0,0,1,13.37,5.53,7.82,7.82,0,0,1-13.37,5.54ZM60,34.81a4.12,4.12,0,0,0,2.91,7,4.11,4.11,0,0,0,0-8.22A4,4,0,0,0,60,34.81Z"/><path class="cls-2" d="M88.45,47.15q0,5.12-3,7.72a7.58,7.58,0,0,1-5.13,2V55l0-1.86a4.2,4.2,0,0,0,2.51-.9q1.95-1.53,2-5.11V44.41a7.6,7.6,0,0,1-4.14,1.16,7.92,7.92,0,0,1-7.85-7.85,7.84,7.84,0,1,1,15.68,0ZM77.72,34.8a4.12,4.12,0,1,0,5.82,5.82,4.12,4.12,0,1,0-5.82-5.82Z"/><path class="cls-2" d="M95.17,30.49a7.81,7.81,0,0,1,3-.6v3.67a3.87,3.87,0,0,0-1.57.32,4.23,4.23,0,0,0-1.29.88A4,4,0,0,0,94.47,36a2.74,2.74,0,0,0-.32,1.44v8.1H90.46V29.87h3.69V31A7.19,7.19,0,0,1,95.17,30.49Z"/><path class="cls-2" d="M111.44,44.4a7.83,7.83,0,0,1-4.18,1.17,7.9,7.9,0,0,1-7.84-7.85,7.86,7.86,0,0,1,15.71,0v7.85h-3.69Zm-7.08-9.59a4.12,4.12,0,0,0,5.83,5.81,4.12,4.12,0,0,0-5.83-5.81Z"/><path class="cls-2" d="M133,29.87a6.49,6.49,0,0,1,6.48,6.49v9.21h-3.66V36.36a2.66,2.66,0,0,0-.83-2,2.69,2.69,0,0,0-2-.82,2.82,2.82,0,0,0-2.82,2.82v9.21h-3.71V36.36a2.82,2.82,0,0,0-4.81-2,2.8,2.8,0,0,0-.82,2v9.21h-3.67V36.36a6.49,6.49,0,0,1,6.48-6.49,6.16,6.16,0,0,1,4.67,2A6.22,6.22,0,0,1,133,29.87Z"/><path class="cls-2" d="M157.29,29.87a6.49,6.49,0,0,1,6.48,6.49v9.21h-3.66V36.36a2.82,2.82,0,0,0-2.82-2.82,2.82,2.82,0,0,0-2.82,2.82v9.21h-3.71V36.36a2.82,2.82,0,0,0-4.81-2,2.8,2.8,0,0,0-.82,2v9.21h-3.67V36.36a6.49,6.49,0,0,1,6.48-6.49,6.16,6.16,0,0,1,4.67,2A6.22,6.22,0,0,1,157.29,29.87Z"/><path class="cls-2" d="M173.66,45.57a8.16,8.16,0,0,1-2.87-.54,8,8,0,0,1-2.54-1.62,7.64,7.64,0,0,1-1.78-2.54,7.33,7.33,0,0,1-.69-2.87v-.25a7.92,7.92,0,0,1,2.14-5.41,7.38,7.38,0,0,1,2.55-1.79,7.7,7.7,0,0,1,3-.68h.17a7.59,7.59,0,0,1,2.87.55A7.81,7.81,0,0,1,179,32a12.09,12.09,0,0,1,2.53,4.22L171,40.89a4.9,4.9,0,0,0,1.1.65,4.1,4.1,0,0,0,1.48.29h.17a4.83,4.83,0,0,0,1.5-.35,4.64,4.64,0,0,0,1.34-.94,5,5,0,0,0,.83-1.32l3.48,1.34a8.06,8.06,0,0,1-1.61,2.53,7.52,7.52,0,0,1-2.53,1.79,7.65,7.65,0,0,1-2.89.69Zm-.17-12A4.1,4.1,0,0,0,172,34a4.15,4.15,0,0,0-1.36.94,5.51,5.51,0,0,0-.81,1.31,4.1,4.1,0,0,0-.29,1.27l6.7-2.94a5,5,0,0,0-1.09-.65,4.2,4.2,0,0,0-1.57-.28Z"/><path class="cls-2" d="M188.27,30.49a7.73,7.73,0,0,1,3-.6v3.67a3.87,3.87,0,0,0-1.57.32,4.23,4.23,0,0,0-1.29.88,4,4,0,0,0-.85,1.27,2.75,2.75,0,0,0-.31,1.44v8.1h-3.69V29.87h3.69V31A6.26,6.26,0,0,1,188.27,30.49Z"/><path class="cls-2" d="M194.63,44.3a4.44,4.44,0,0,1-1.6-3.49h3.64a1,1,0,0,0,.72,1,1.9,1.9,0,0,0,.72.15,2.57,2.57,0,0,0,1.1-.2.8.8,0,0,0,.48-.66.85.85,0,0,0-.23-.7,2.73,2.73,0,0,0-1.56-.53,6,6,0,0,1-3.8-1.74,4.37,4.37,0,0,1-1.22-3,5.18,5.18,0,0,1,1.33-3.54A4.79,4.79,0,0,1,198,29.87a5.2,5.2,0,0,1,5.38,5.36h-3.64a1.51,1.51,0,0,0-1.74-1.7c-1,0-1.5.51-1.5,1.55q0,.95,1.8,1.17a5.59,5.59,0,0,1,4.14,2,4.45,4.45,0,0,1,.87,2.8,4,4,0,0,1-1.54,3.23,5.69,5.69,0,0,1-3.68,1.27A5.25,5.25,0,0,1,194.63,44.3Z"/><path class="cls-2" d="M132.82,52.61v12.7h9.3v3.74h-9.3v7.16h-3.74V48.89h15.79v3.72Z"/><path class="cls-2" d="M146.9,73.91a7.59,7.59,0,0,1-2.32-5.55,7.85,7.85,0,0,1,15.69,0,7.83,7.83,0,0,1-13.37,5.55Zm2.62-8.45a4,4,0,0,0-1.19,2.9,4.1,4.1,0,0,0,1.19,2.91,4,4,0,0,0,2.91,1.2,4,4,0,0,0,2.9-1.2,4,4,0,0,0,1.2-2.91,4.11,4.11,0,0,0-4.1-4.11A4,4,0,0,0,149.52,65.46Z"/><path class="cls-2" d="M167,61.13a7.81,7.81,0,0,1,3-.6V64.2a3.87,3.87,0,0,0-1.57.32,4.09,4.09,0,0,0-1.29.89,3.89,3.89,0,0,0-.85,1.26,2.77,2.77,0,0,0-.32,1.44v8.1h-3.69V60.51H166v1.15A7.19,7.19,0,0,1,167,61.13Z"/><path class="cls-2" d="M182.66,70.35l3,2.25a9.08,9.08,0,0,1-1.06,1.31,7.61,7.61,0,0,1-5.57,2.3,7.82,7.82,0,0,1-5.52-13.38A7.47,7.47,0,0,1,179,60.51a7.55,7.55,0,0,1,5.57,2.32,7.2,7.2,0,0,1,1.06,1.29l-3,2.25a4.33,4.33,0,0,0-.7-.91,4.11,4.11,0,0,0-7,2.9,4.12,4.12,0,0,0,7,2.91A3.87,3.87,0,0,0,182.66,70.35Z"/><path class="cls-2" d="M195.55,76.21a7.75,7.75,0,0,1-5.41-2.15,7.74,7.74,0,0,1-1.78-2.54,7.55,7.55,0,0,1-.69-2.87v-.26a8,8,0,0,1,.54-2.87,8,8,0,0,1,1.6-2.54,7.39,7.39,0,0,1,2.56-1.78,7.62,7.62,0,0,1,2.95-.69h.17a7.89,7.89,0,0,1,5.41,2.17,12.25,12.25,0,0,1,2.54,4.23l-10.52,4.62a5.18,5.18,0,0,0,1.1.66,4.31,4.31,0,0,0,1.48.28h.17a4.56,4.56,0,0,0,1.5-.35,4.51,4.51,0,0,0,1.34-.94,5,5,0,0,0,.83-1.32l3.48,1.34a8.08,8.08,0,0,1-1.6,2.54,8.1,8.1,0,0,1-5.43,2.47Zm-.16-12a4.31,4.31,0,0,0-1.52.35,4.47,4.47,0,0,0-1.36.94,5.38,5.38,0,0,0-.81,1.32,4.34,4.34,0,0,0-.29,1.27l6.7-2.94a4.14,4.14,0,0,0-1.09-.65,4.2,4.2,0,0,0-1.57-.29Z"/><text class="cls-3" transform="translate(37.29 95.03)">Private Limited</text></g></g></svg>