<?xml version="1.0" encoding="UTF-8"?>
<svg width="70px" height="129px" viewBox="0 0 70 129" version="1.1" xmlns="http://www.w3.org/2000/svg" xmlns:xlink="http://www.w3.org/1999/xlink">
    <!-- Generator: Sketch 54.1 (76490) - https://sketchapp.com -->
    <title>Reward</title>
    <desc>Created with Sketch.</desc>
    <defs>
        <linearGradient x1="-24.1193399%" y1="16.3248982%" x2="124.551969%" y2="83.8590569%" id="linearGradient-1">
            <stop stop-color="#281386" offset="0%"></stop>
            <stop stop-color="#271C90" offset="19%"></stop>
            <stop stop-color="#2531A7" offset="42%"></stop>
            <stop stop-color="#2441B8" offset="55%"></stop>
            <stop stop-color="#234DC5" offset="67%"></stop>
            <stop stop-color="#2253CC" offset="79%"></stop>
            <stop stop-color="#2255CE" offset="100%"></stop>
        </linearGradient>
        <linearGradient x1="-8.64761381%" y1="16.3248982%" x2="108.989936%" y2="83.8590569%" id="linearGradient-2">
            <stop stop-color="#281386" offset="0%"></stop>
            <stop stop-color="#271C90" offset="19%"></stop>
            <stop stop-color="#2531A7" offset="42%"></stop>
            <stop stop-color="#2441B8" offset="55%"></stop>
            <stop stop-color="#234DC5" offset="67%"></stop>
            <stop stop-color="#2253CC" offset="79%"></stop>
            <stop stop-color="#2255CE" offset="100%"></stop>
        </linearGradient>
        <linearGradient x1="-8.64828069%" y1="16.3248982%" x2="108.990607%" y2="83.8590569%" id="linearGradient-3">
            <stop stop-color="#281386" offset="0%"></stop>
            <stop stop-color="#271C90" offset="19%"></stop>
            <stop stop-color="#2531A7" offset="42%"></stop>
            <stop stop-color="#2441B8" offset="55%"></stop>
            <stop stop-color="#234DC5" offset="67%"></stop>
            <stop stop-color="#2253CC" offset="79%"></stop>
            <stop stop-color="#2255CE" offset="100%"></stop>
        </linearGradient>
        <linearGradient x1="-24.1193399%" y1="18.7818371%" x2="124.551969%" y2="81.3886966%" id="linearGradient-4">
            <stop stop-color="#281386" offset="0%"></stop>
            <stop stop-color="#271C90" offset="19%"></stop>
            <stop stop-color="#2531A7" offset="42%"></stop>
            <stop stop-color="#2441B8" offset="55%"></stop>
            <stop stop-color="#234DC5" offset="67%"></stop>
            <stop stop-color="#2253CC" offset="79%"></stop>
            <stop stop-color="#2255CE" offset="100%"></stop>
        </linearGradient>
    </defs>
    <g id="Page-1" stroke="none" stroke-width="1" fill="none" fill-rule="evenodd">
        <g id="Home_page_PF_2020-Copy" transform="translate(-159.000000, -1468.000000)" fill-rule="nonzero">
            <g id="Pink-Area-1-Copy-2" transform="translate(159.000000, 1441.000000)">
                <g id="Reward" transform="translate(-42.000000, 8.000000)">
                    <g id="Group">
                        <circle id="Oval" fill="url(#linearGradient-1)" transform="translate(65.487767, 65.580033) rotate(-45.000000) translate(-65.487767, -65.580033) " cx="65.4877668" cy="65.5800328" r="46.2895618"></circle>
                        <path d="M65.5,107.268323 C40.7498024,107.268323 20.5429229,87.7614035 19.3292312,63.2411789 C19.290915,64.015193 19.2709802,64.7944 19.2709802,65.5780211 C19.2709802,91.1840982 39.9684625,111.942007 65.5,111.942007 C91.0315375,111.942007 111.72902,91.1840982 111.72902,65.5780211 C111.72902,64.7944 111.709085,64.015193 111.670769,63.2411789 C110.457077,87.7614035 90.2501976,107.268323 65.5,107.268323 Z" id="Path" fill="#001647"></path>
                        <path d="M65.5,111.942007 L78.0138656,148 L89.7702095,136.470021 L106.12398,138.18734 L93.6800158,102.330835 C85.8787846,108.356253 76.1076344,111.942007 65.5,111.942007 L65.5,111.942007 Z" id="Path" fill="url(#linearGradient-2)"></path>
                        <path d="M95.6649506,108.050386 L93.6800158,102.330835 C85.8790435,108.356253 76.1076344,111.941747 65.5,111.941747 L67.4908893,117.678435 C77.9737372,117.28247 87.6628182,113.776947 95.6649506,108.050386 L95.6649506,108.050386 Z" id="Path" fill="#001647"></path>
                        <path d="M65.5,111.942007 C54.8923656,111.942007 45.1212154,108.356253 37.3199842,102.331095 L24.8760198,138.18734 L41.2297905,136.470021 L52.9861344,148 L65.5,111.942007 Z" id="Path" fill="url(#linearGradient-3)"></path>
                        <path d="M63.5091107,117.678435 L65.5,111.941747 C54.8923656,111.941747 45.1212154,108.355993 37.3199842,102.330835 L35.3350494,108.050386 C43.3371818,113.776947 53.0262628,117.28247 63.5091107,117.678435 L63.5091107,117.678435 Z" id="Path" fill="#001647"></path>
                        <circle id="Oval" fill="#6DDAFF" transform="translate(65.487767, 65.580033) rotate(-45.000000) translate(-65.487767, -65.580033) " cx="65.4877668" cy="65.5800328" r="36.4662119"></circle>
                        <path d="M65.5,97.4291789 C46.1694743,97.4291789 30.3593794,82.3240912 29.1575968,63.2411789 C29.1089249,64.0141544 29.0812233,64.7928421 29.0812233,65.5780211 C29.0812233,85.7501614 45.3863221,102.102863 65.4997411,102.102863 C85.6131601,102.102863 101.918259,85.7501614 101.918259,65.5780211 C101.918259,64.7928421 101.890557,64.0141544 101.841885,63.2411789 C100.640621,82.3240912 84.8305257,97.4291789 65.5,97.4291789 Z" id="Path" fill="#29C9FF"></path>
                        <path d="M68.8340277,47.7863439 L72.2304486,54.6885965 C72.7720534,55.7889895 73.8187589,56.5518386 75.0298617,56.7284 L82.6247549,57.8352842 C85.6742589,58.2798035 86.891834,62.0382246 84.6852866,64.1953895 L79.1895,69.5680491 C78.3131462,70.4246316 77.913415,71.6590035 78.1202708,72.8684491 L79.417585,80.4546175 C79.9384783,83.5005614 76.7507253,85.8233825 74.0230257,84.3854456 L67.2299249,80.803586 C66.1467154,80.2326175 64.8527668,80.2326175 63.7698162,80.803586 L56.9767154,84.3854456 C54.2492747,85.8236421 51.0612628,83.5008211 51.5821561,80.4546175 L52.8794704,72.8684491 C53.0863261,71.6587439 52.6865949,70.4246316 51.8102411,69.5680491 L46.3144545,64.1953895 C44.1079071,62.0382246 45.3254822,58.2798035 48.3749862,57.8352842 L55.9698794,56.7284 C57.1807233,56.5518386 58.2276877,55.7892491 58.7692925,54.6885965 L62.1657134,47.7863439 C63.5298221,45.0148491 67.4701779,45.0148491 68.8340277,47.7863439 Z" id="Path" fill="url(#linearGradient-4)"></path>
                        <path d="M64.8975553,75.5350456 L51.7812451,82.4508 C52.5439447,84.3867439 54.8936601,85.4835018 56.9769743,84.3849263 L63.7700751,80.8030667 C64.8532846,80.2320982 66.1472332,80.2320982 67.2301838,80.8030667 L74.0232846,84.3849263 C76.1065988,85.4832421 78.4563142,84.3867439 79.2190138,82.4508 L66.1024447,75.5350456 C65.7252372,75.3361544 65.2747628,75.3361544 64.8975553,75.5350456 L64.8975553,75.5350456 Z" id="Path" fill="#001647"></path>
                    </g>
                </g>
            </g>
        </g>
    </g>
</svg>