<?xml version="1.0" encoding="UTF-8"?>
<svg width="79px" height="111px" viewBox="0 0 79 111" version="1.1" xmlns="http://www.w3.org/2000/svg" xmlns:xlink="http://www.w3.org/1999/xlink">
    <!-- Generator: Sketch 54.1 (76490) - https://sketchapp.com -->
    <title>time</title>
    <desc>Created with Sketch.</desc>
    <defs>
        <linearGradient x1="-24.1193399%" y1="20.6096525%" x2="124.551969%" y2="79.5508965%" id="linearGradient-1">
            <stop stop-color="#281386" offset="0%"></stop>
            <stop stop-color="#271C90" offset="19%"></stop>
            <stop stop-color="#2531A7" offset="42%"></stop>
            <stop stop-color="#2441B8" offset="55%"></stop>
            <stop stop-color="#234DC5" offset="67%"></stop>
            <stop stop-color="#2253CC" offset="79%"></stop>
            <stop stop-color="#2255CE" offset="100%"></stop>
        </linearGradient>
        <linearGradient x1="-24.1193399%" y1="16.9737299%" x2="124.551969%" y2="83.2066809%" id="linearGradient-2">
            <stop stop-color="#281386" offset="0%"></stop>
            <stop stop-color="#271C90" offset="19%"></stop>
            <stop stop-color="#2531A7" offset="42%"></stop>
            <stop stop-color="#2441B8" offset="55%"></stop>
            <stop stop-color="#234DC5" offset="67%"></stop>
            <stop stop-color="#2253CC" offset="79%"></stop>
            <stop stop-color="#2255CE" offset="100%"></stop>
        </linearGradient>
        <linearGradient x1="-24.1193399%" y1="16.3248982%" x2="124.551969%" y2="83.8590569%" id="linearGradient-3">
            <stop stop-color="#281386" offset="0%"></stop>
            <stop stop-color="#271C90" offset="19%"></stop>
            <stop stop-color="#2531A7" offset="42%"></stop>
            <stop stop-color="#2441B8" offset="55%"></stop>
            <stop stop-color="#234DC5" offset="67%"></stop>
            <stop stop-color="#2253CC" offset="79%"></stop>
            <stop stop-color="#2255CE" offset="100%"></stop>
        </linearGradient>
    </defs>
    <g id="Page-1" stroke="none" stroke-width="1" fill="none" fill-rule="evenodd">
        <g id="Home_page_PF_2020-Copy" transform="translate(-159.000000, -1247.000000)" fill-rule="nonzero">
            <g id="Pink-Area-1" transform="translate(159.000000, 1214.000000)">
                <g id="time" transform="translate(-21.000000, 33.000000)">
                    <g id="Group" transform="translate(1.000000, 0.000000)">
                        <path d="M33.8154734,7.49548609 C29.657294,2.00139193 22.8084369,-0.755437532 16.0012311,0.324825706 C9.19402527,1.40508894 3.53632542,6.14663489 1.28525223,12.6578395 C-0.965820957,19.169044 0.556088725,26.3902259 5.24382044,31.4405183 C11.3519721,20.0992907 21.577334,11.5297263 33.8154734,7.49548609 L33.8154734,7.49548609 Z" id="Path" fill="url(#linearGradient-1)"></path>
                        <path d="M93.7561796,31.4405183 C98.4439113,26.3902259 99.965821,19.169044 97.7147478,12.6578395 C95.4636746,6.14663489 89.8059747,1.40508894 82.9987689,0.324825706 C76.1915631,-0.755437532 69.342706,2.00139193 65.1845266,7.49548609 C77.422666,11.5297263 87.6480279,20.0992907 93.7561796,31.4405183 L93.7561796,31.4405183 Z" id="Path" fill="url(#linearGradient-1)"></path>
                        <path d="M81.9438175,93.4891837 C77.6283912,97.1462807 72.7251308,100.047436 67.4415315,102.06988 L81.4275289,110.55219 C82.2318468,111.040309 83.2492381,111.005054 84.0178013,110.462429 C84.7863645,109.919805 85.1596658,108.973198 84.9682242,108.052373 L81.9438175,93.4891837 Z" id="Path" fill="url(#linearGradient-2)"></path>
                        <path d="M17.0561825,93.4891837 L14.0317758,108.052373 C13.8403342,108.973198 14.2136355,109.919805 14.9821987,110.462429 C15.7507619,111.005054 16.7681532,111.040309 17.5724711,110.55219 L31.5584685,102.06988 C26.2748692,100.047436 21.3716088,97.1462807 17.0561825,93.4891837 L17.0561825,93.4891837 Z" id="Path" fill="url(#linearGradient-2)"></path>
                    </g>
                    <circle id="Oval" fill="url(#linearGradient-3)" cx="50" cy="56" r="50"></circle>
                    <path d="M89,55 C89.0005362,44.6567431 84.8977134,34.7369353 77.5941625,27.4229583 C70.2906116,20.1089814 60.3846433,16 50.0555944,16 L50,16 L50,55 L89,55 Z" id="Path" fill="#6DDAFF"></path>
                    <path d="M89,55 L50,55 L69.9988321,88 C81.7860383,81.0734229 89.005378,68.5353384 89,55 Z" id="Path" fill="#61D7FF"></path>
                    <path d="M18,76.0410575 C29.5509085,92.481236 52.7263968,98.1136248 70,87.8281189 L49.3870489,54 L18,76.0410575 Z" id="Path" fill="#6DDAFF"></path>
                    <path d="M50,16 C35.8105073,16.0164288 22.8092611,24.0715439 16.2745354,36.8951123 C9.7398097,49.7186807 10.7577859,65.1792096 18.9151837,77 L50,54.7439499 L50,16 Z" id="Path" fill="#29C9FF"></path>
                    <path d="M95.4401003,78.1161055 C95.1913415,77.9927488 94.9001228,77.9664819 94.6305547,78.0430873 C94.3609865,78.1196928 94.1351681,78.2928906 94.0028122,78.5245519 C92.6203487,80.9392286 91.0212155,83.2408463 89.2224749,85.4048473 C88.9900175,85.6843286 88.9353739,86.0580346 89.0791279,86.385194 C89.2228818,86.7123534 89.5431936,86.9432628 89.919405,86.9909409 C90.2956163,87.0386189 90.6705716,86.8958223 90.903029,86.616341 C92.7737693,84.3631203 94.4368577,81.9668985 95.8745798,79.453199 C96.1504449,78.9722038 95.9560908,78.3740868 95.4401003,78.1161055 L95.4401003,78.1161055 Z" id="Path" fill="#224EC6"></path>
                </g>
            </g>
        </g>
    </g>
</svg>